<?xml version="1.0" encoding="UTF-8"?>
<svg xmlns="http://www.w3.org/2000/svg" width="837.84" height="144.92" viewBox="0 0 837.84 144.92">
  <g id="uuid-81b6ed8a-42d8-4260-b7b7-9d07d31474dc" data-name="uuid-61a8ac1e-f76d-4f19-9f1b-dbc5ce044c27">
    <g>
      <path d="M1.6,133.49c-1.07-1.07-1.6-2.38-1.6-3.94V57.42c0-1.63,.53-2.96,1.6-4,1.07-1.03,2.38-1.54,3.94-1.54H31c4.76,0,8.98,.94,12.68,2.82,3.69,1.88,6.59,4.51,8.68,7.88s3.14,7.19,3.14,11.45c0,3.48-.94,6.61-2.82,9.38s-4.46,5.01-7.72,6.71c4.83,1.14,8.63,3.41,11.4,6.82,2.77,3.41,4.16,7.74,4.16,13,0,4.83-1.16,9.16-3.46,13-2.31,3.84-5.54,6.82-9.7,8.95s-8.86,3.2-14.12,3.2H5.54c-1.56,0-2.88-.53-3.94-1.6h0Zm29.41-47.41c4.19,0,7.55-1.03,10.07-3.09s3.78-5.04,3.78-8.95-1.26-6.87-3.78-8.9c-2.52-2.02-5.88-3.04-10.07-3.04H11.08v23.97H31.01Zm2.24,38.79c4.97,0,8.98-1.29,12.04-3.89,3.05-2.59,4.58-6.27,4.58-11.03,0-4.4-1.51-7.78-4.53-10.12-3.02-2.34-7.05-3.52-12.09-3.52H11.08v28.55h22.17Z" fill="#1c1c1c"/>
      <path d="M91.36,130.72c-6.43-3.62-11.42-8.68-14.97-15.18s-5.33-13.87-5.33-22.11,1.77-15.59,5.33-22.05c3.55-6.46,8.54-11.51,14.97-15.13s13.76-5.43,22-5.43,15.47,1.81,21.9,5.43,11.44,8.67,15.02,15.13c3.59,6.46,5.38,13.82,5.38,22.05s-1.79,15.61-5.38,22.11c-3.59,6.5-8.58,11.56-14.97,15.18-6.39,3.62-13.71,5.43-21.95,5.43s-15.57-1.81-22-5.43h0Zm38.3-8.9c4.83-2.88,8.59-6.8,11.29-11.77,2.7-4.97,4.05-10.51,4.05-16.62s-1.35-11.65-4.05-16.62-6.45-8.88-11.24-11.72c-4.79-2.84-10.25-4.26-16.35-4.26s-11.56,1.42-16.35,4.26c-4.79,2.84-8.54,6.75-11.24,11.72s-4.05,10.51-4.05,16.62,1.35,11.65,4.05,16.62c2.7,4.97,6.46,8.9,11.29,11.77,4.83,2.88,10.26,4.31,16.3,4.31s11.47-1.44,16.3-4.31Z" fill="#1c1c1c"/>
      <path d="M187.36,130.72c-6.43-3.62-11.42-8.68-14.97-15.18s-5.33-13.87-5.33-22.11,1.77-15.59,5.33-22.05c3.55-6.46,8.54-11.51,14.97-15.13,6.43-3.62,13.76-5.43,22-5.43s15.47,1.81,21.9,5.43,11.44,8.67,15.02,15.13c3.59,6.46,5.38,13.82,5.38,22.05s-1.79,15.61-5.38,22.11c-3.59,6.5-8.58,11.56-14.97,15.18-6.39,3.62-13.71,5.43-21.95,5.43s-15.57-1.81-22-5.43h0Zm38.3-8.9c4.83-2.88,8.59-6.8,11.29-11.77,2.7-4.97,4.05-10.51,4.05-16.62s-1.35-11.65-4.05-16.62-6.45-8.88-11.24-11.72c-4.79-2.84-10.25-4.26-16.35-4.26s-11.56,1.42-16.35,4.26c-4.79,2.84-8.54,6.75-11.24,11.72-2.7,4.97-4.05,10.51-4.05,16.62s1.35,11.65,4.05,16.62,6.46,8.9,11.29,11.77c4.83,2.88,10.26,4.31,16.3,4.31s11.47-1.44,16.3-4.31h0Z" fill="#1c1c1c"/>
      <path d="M268.68,133.49c-1.1-1.07-1.65-2.38-1.65-3.94V57.42c0-1.56,.55-2.88,1.65-3.94,1.1-1.07,2.4-1.6,3.89-1.6s2.88,.53,3.94,1.6,1.6,2.38,1.6,3.94v31.96l35.27-35.27c.85-.85,1.62-1.44,2.29-1.76s1.44-.48,2.29-.48c1.49,0,2.65,.44,3.46,1.33,.82,.89,1.23,1.97,1.23,3.25,0,1.85-.68,3.45-2.02,4.79l-27.17,27.28,27.7,37.72c.71,1,1.07,2.13,1.07,3.41,0,1.42-.46,2.68-1.39,3.78-.92,1.1-2.1,1.65-3.52,1.65-1.99,0-3.52-.78-4.58-2.34l-26.96-36.55-7.67,7.67v25.68c0,1.56-.53,2.88-1.6,3.94s-2.38,1.6-3.94,1.6-2.79-.53-3.89-1.6h0Z" fill="#1c1c1c"/>
    </g>
    <g>
      <path d="M556.72,133.49c-1.03-1.07-1.54-2.38-1.54-3.94V57.42c0-1.56,.53-2.88,1.6-3.94s2.34-1.6,3.84-1.6,2.88,.53,3.94,1.6,1.6,2.38,1.6,3.94V124.01h38.57c1.56,0,2.88,.53,3.94,1.6s1.6,2.38,1.6,3.94-.53,2.88-1.6,3.94-2.38,1.6-3.94,1.6h-44.11c-1.56,0-2.86-.53-3.89-1.6h-.01Z" fill="#1c1c1c"/>
      <path d="M686.33,129.66c0,1.49-.53,2.77-1.6,3.83s-2.38,1.6-3.94,1.6c-1.07,0-2.08-.3-3.04-.91s-1.65-1.44-2.08-2.5l-5.97-14.92h-38.25l-6.07,14.92c-.5,1.07-1.21,1.9-2.13,2.5s-1.92,.91-2.98,.91c-1.56,0-2.86-.55-3.89-1.65-1.03-1.1-1.54-2.4-1.54-3.89,0-.71,.18-1.53,.53-2.45l29.94-71.49c1.07-2.49,2.8-3.73,5.22-3.73,2.56,0,4.3,1.24,5.22,3.73l30.05,71.71c.35,.92,.53,1.71,.53,2.34h0Zm-51.14-22.06h30.79l-15.24-37.93-15.56,37.93h.01Z" fill="#1c1c1c"/>
      <path d="M700.08,133.49c-1.07-1.07-1.6-2.38-1.6-3.94V57.42c0-1.63,.53-2.96,1.6-4,1.07-1.03,2.38-1.54,3.94-1.54h19.29c8.03,0,15.16,1.78,21.42,5.33,6.25,3.55,11.12,8.47,14.6,14.76s5.22,13.44,5.22,21.47-1.74,15.2-5.22,21.52-8.35,11.26-14.6,14.81c-6.25,3.55-13.39,5.33-21.42,5.33h-19.29c-1.56,0-2.88-.53-3.94-1.6h0Zm23.23-8.21c5.89,0,11.17-1.35,15.82-4.05,4.65-2.7,8.27-6.48,10.87-11.35,2.59-4.86,3.89-10.35,3.89-16.46s-1.3-11.58-3.89-16.41-6.22-8.59-10.87-11.29c-4.65-2.7-9.93-4.05-15.82-4.05h-13.75v63.61h13.75Z" fill="#1c1c1c"/>
      <path d="M836.51,53.37c.89,1,1.33,2.2,1.33,3.62,0,1.21-.36,2.38-1.07,3.52l-28.66,44.22v24.83c0,1.56-.53,2.88-1.6,3.94s-2.38,1.6-3.94,1.6-2.77-.53-3.84-1.6-1.6-2.38-1.6-3.94v-24.83l-28.45-44.22c-.78-1.21-1.17-2.34-1.17-3.41,0-1.49,.55-2.73,1.65-3.73,1.1-.99,2.4-1.49,3.89-1.49,1.14,0,2.06,.25,2.77,.75s1.42,1.28,2.13,2.34l24.93,39.53,25.36-39.96c1.13-1.77,2.77-2.66,4.9-2.66,1.35,0,2.47,.5,3.36,1.49h0Z" fill="#1c1c1c"/>
    </g>
  </g>
  <g id="uuid-15a5d94f-822f-4808-9c03-87d49fbaa0c4" data-name="Livello 2">
    <polygon points="504.13 135.99 503.9 136.21 503.7 135.99 504.13 135.99" fill="#1d1d1b"/>
    <path d="M421.93,113.45c0,.75-.61,1.36-1.37,1.36h-46.36c-.75,0-1.36-.61-1.36-1.36s.61-1.37,1.36-1.37h46.36c.75,0,1.37,.61,1.37,1.37Z" fill="#1c1c1c"/>
    <path d="M509.85,101.72c.99,0,1.79-.8,1.79-1.79v-2.79c0-.99-.8-1.79-1.79-1.79h-14.03c2.23-.6,3.86-2.63,3.86-5.05v-16.21c0-2.89-2.34-5.23-5.24-5.23h-11.93c4.29-2.15,7.24-6.59,7.24-11.71v-6.81c0-4.84-2.64-9.08-6.56-11.34,3.22-1.34,6.62-3.72,9.47-7.86,0,0,5.06-7.83,5.53-18.52,0,0,1.06-5.73,1.96-7.23,.89-1.51,1.72-2.87,1.72-2.87,0,0,.32-.64-.28-.79-4.9-1.19-12.38-2.41-21.34-1.29-12.53,1.56-21.71,6.87-26.78,10.45l-.89,.64-.23,.17-1.02,.73c-.24,.02-.5,.03-.75,.03h-.17c-.17,0-.32,0-.48-.03l-1.3-.9-.05-.05-1.8-1.26-.07-.05c-5.24-3.54-14.03-8.27-25.75-9.73-8.96-1.12-16.44,.1-21.34,1.29-.6,.15-.28,.79-.28,.79,0,0,.82,1.36,1.72,2.87,.89,1.51,1.95,7.23,1.95,7.23,.48,10.69,5.54,18.52,5.54,18.52,1.88,2.73,4,4.7,6.15,6.1h-38.12c-1.47,0-2.65,1.2-2.65,2.66v2.09c0,1.47,1.19,2.66,2.65,2.66h4.68c1.19,2,2.44,5.02,2.42,8.78-.02,4.15-1.57,7.37-2.97,9.43h-4.13c-1.47,0-2.65,1.19-2.65,2.65v2.09c0,.47,.12,.91,.34,1.29-2.62,.28-4.66,2.5-4.66,5.2v16.21c0,2.41,1.63,4.44,3.86,5.05h-2.03c-8.7,0-15.76,7.06-15.76,15.76v9.13c0,8.7,7.06,15.76,15.76,15.76h138.43c.99,0,1.79-.8,1.79-1.79v-2.8c0-.98-.8-1.79-1.79-1.79h-3.27c-1.94-2.32-5.15-7.17-5.19-13.95-.04-7.03,3.41-12.04,4.97-13.95h3.49Zm-22.28-28.17c2.05,0,3.72,1.66,3.72,3.72v10.89c0,2.05-1.66,3.72-3.72,3.72h-22.89c-2.05,0-3.72-1.66-3.72-3.72v-10.89c0-2.05,1.66-3.72,3.72-3.72h22.89Zm-30.81-57.42c.32-1.61,1.5-2.66,2.15-3.15,3.57-1.81,8.77-3.95,15.32-5.08,7.88-1.36,14.51-.71,18.83,.07,1.35,12.48-2.67,22.92-8.81,26.21-4.03,2.17-8.37,2.22-8.37,2.22-1.06,.01-4.31,0-7.59-1.64-2.4-1.2-3.78-2.68-5.16-4.15,0,0-3.61-3.89-6.16-11.89-.2-.63-.43-1.53-.21-2.58Zm-8.04,2.87s0-.01,.03-.04c.07-.12,.3-.47,.6-.81,.15-.16,.21-.24,.37-.37,.2-.04,.48-.14,.69-.15,.39-.01,.75,.05,1.07,.15,.2,.18,.39,.39,.55,.6l.04,.04c.05,.07,.11,.14,.16,.21,0,0,0,0,0,0,.04,.05,.08,.11,.11,.16,.01,.01,.02,.02,.02,.03,.1,.14,.18,.26,.22,.33,.03,.05,.05,.08,.05,.08,.96,1.54,.67,2.27,3.35,6.75,2.48,4.14,3.83,6.39,6.21,8.69,.77,.74,1.8,1.64,3.16,2.57h-29.54c1.36-.93,2.4-1.83,3.16-2.57,2.38-2.3,3.72-4.55,6.21-8.69,2.83-4.72,2.35-5.28,3.52-6.99h0Zm-40.59-11.03c4.32-.78,10.95-1.43,18.83-.07,6.56,1.14,11.75,3.28,15.33,5.08,.65,.49,1.82,1.54,2.15,3.15,.21,1.05,0,1.94-.21,2.58-2.56,8-6.16,11.89-6.16,11.89-1.37,1.47-2.77,2.96-5.16,4.15-3.29,1.64-6.53,1.66-7.59,1.64,0,0-4.34-.05-8.38-2.22-6.13-3.29-10.15-13.73-8.8-26.21h0Zm-20.29,36.69h87.86c3.38,0,6.13,2.75,6.13,6.12v5.96c0,3.38-2.75,6.13-6.13,6.13h-88.22c1.17-2.52,2.09-5.68,2.11-9.4,.02-3.43-.75-6.41-1.75-8.81h0Zm-4.44,28.9h6.88v19.72h-6.88v-19.72Zm-10.73,56.07c-5.5,0-9.96-4.46-9.96-9.96v-7.97c0-5.5,4.46-9.96,9.96-9.96h125.97c-1.86,3.31-3.7,8.1-3.67,13.99,0,1.74,.18,3.39,.48,4.93h-38.55c-.72,0-1.3,.61-1.3,1.36s.58,1.37,1.3,1.37h39.2c.71,2.41,1.68,4.51,2.69,6.26h-126.11Z" fill="#1c1c1c"/>
    <g>
      <polygon points="344.91 19.7 344.81 19.7 344.87 19.65 344.91 19.7" fill="#1d1d1b"/>
      <polygon points="343.56 69.7 343.44 69.83 343.3 69.7 343.56 69.7" fill="#1d1d1b"/>
    </g>
    <path d="M421.76,56.67c0,.52-.42,.94-.94,.94h-24.7c-.52,0-.94-.42-.94-.94s.42-.94,.94-.94h24.7c.52,0,.94,.42,.94,.94Z" fill="#1c1c1c"/>
    <path d="M470.27,51.65c0,.52-.43,.94-.95,.94h-17.88c-.52,0-.94-.42-.94-.94s.42-.94,.94-.94h17.88c.52,0,.95,.42,.95,.94Z" fill="#1c1c1c"/>
    <polygon points="378.71 113.45 378.71 144.92 390.69 136.94 402.49 144.81 402.49 113.45 378.71 113.45" fill="#007bff"/>
  </g>
</svg>